<svg width="175" height="123" viewBox="0 0 175 123" fill="none" xmlns="http://www.w3.org/2000/svg">
<path d="M55.6875 23.0684V24.0684H54.6875H21.875C16.0237 24.0684 10.7613 25.7417 6.98797 28.3936C3.21136 31.0479 1 34.6174 1 38.4424V107.626C1 111.451 3.21136 115.02 6.98797 117.675C10.7613 120.327 16.0237 122 21.875 122H153.125C158.976 122 164.239 120.327 168.012 117.675C171.789 115.02 174 111.451 174 107.626V38.4424C174 34.6174 171.789 31.0479 168.012 28.3936C164.239 25.7417 158.976 24.0684 153.125 24.0684H103.906H103.659L103.44 23.9529L60.7573 1.44838C60.7561 1.44777 60.7549 1.44717 60.7537 1.44656C59.6818 0.89492 58.3432 0.879822 57.2755 1.26121C56.165 1.65786 55.6875 2.32458 55.6875 2.88984V23.0684Z" fill="#EDCDCD" stroke="#A7CDA7" stroke-width="2"/>
</svg>
